<?xml version="1.0" encoding="utf-8" ?>
<svg xmlns="http://www.w3.org/2000/svg" xmlns:xlink="http://www.w3.org/1999/xlink" width="150" height="150">
	<path fill="white" transform="scale(0.0488281 0.0488281)" d="M-0 -0L1024 0L1024 1024L-0 1024L0 -0Z"/>
	<path transform="scale(0.0488281 0.0488281)" d="M227.619 131.222L271.25 131.207L356.459 131.159L605.469 131.06L739.343 131.104L779.778 131.112C788.07 131.12 796.662 130.68 804.885 131.769C822.393 134.086 839.435 141.108 853 152.467C867.786 164.848 878.356 180.377 884.25 198.734C888.802 212.91 888.587 226.511 888.664 241.169L888.78 274.403L888.908 344.485L888.971 559.665L888.983 614.886L888.982 626.899C888.981 628.146 888.69 630.344 888.981 631.505C889.108 632.014 891.111 633.873 891.527 634.333L902.33 645.93L979.734 727.821L997.018 745.997C1001.16 750.35 1005.63 754.793 1009.04 759.747C1011.46 763.273 1013.27 768.186 1013.54 772.481C1014.72 791.649 1004.65 809.903 992.189 823.724C981.924 835.106 968.935 844.246 955.751 851.934C909.007 879.192 853.504 890.271 799.99 892.953L755.996 893.076L680.172 892.938L447.201 892.834L300.244 892.974L248.583 893.022C236.114 893.032 223.632 893.268 211.183 892.431C197.339 891.5 183.39 889.384 169.719 887.083C137.707 881.696 105.932 871.533 77.1149 856.559C64.4388 849.972 51.4906 842.05 40.682 832.647C25.9351 819.817 14.0804 804.188 12.8209 784.109C12.1563 773.513 15.4628 762.527 20.9687 753.544C24.5502 747.7 29.1149 743.203 33.8551 738.313L47.2726 724.376L111.728 657.339L127.893 640.395C129.983 638.281 133.05 636.058 134.815 633.746C135.165 633.286 135.129 632.242 135.141 631.75L135.064 526.174L135.007 325.88L134.979 249.009L134.967 226.931C134.956 222.194 134.653 217.229 135.331 212.531C138.069 193.568 145.656 176.606 158.548 162.329C176.51 142.438 201.272 132.553 227.619 131.222Z"/>
	<path fill="white" transform="scale(0.0488281 0.0488281)" d="M342.233 152.75L666.926 152.71L760.157 152.606L787.8 152.529C794.371 152.514 800.912 152.258 807.424 153.3C821.78 155.598 834.683 162.762 845.028 172.883C856.772 184.373 865.512 200.258 867.363 216.75C868.204 224.242 867.885 232.096 867.898 239.64L867.982 543.369L867.88 612.217L867.855 629.5C867.853 632.208 867.468 635.685 868.172 638.275C868.634 639.969 869.875 641.391 870.989 642.694L907.657 681.618L959.241 736.554L980.28 758.475C983.644 761.999 987.749 765.658 990.556 769.612C992.174 771.891 992.575 773.592 992.588 776.344C992.657 790.455 982.212 803.842 972.724 813.334C959.383 826.682 943.352 835.743 926.393 843.678C888.963 861.189 845.93 870.261 804.75 872.526L753.184 873.063L684.25 873.148L358.236 873.201L271.849 873.384C241.818 873.436 212.249 873.721 182.482 868.972C139.434 862.105 94.2166 847.66 59.2144 820.952C47.837 812.271 35.7795 800.401 33.918 785.494C31.29 764.449 48.4774 752.016 61.3566 738.406L131.55 665.707L151.699 644.821C152.779 643.651 155.214 641.588 155.794 640.284C156.204 639.362 155.991 637.275 155.992 636.244L156.003 626.297L156.194 584.143L155.996 324.984L156.013 251.9L156.003 228.928C156.008 223.463 155.814 217.958 156.605 212.536C158.282 201.04 163.771 189.438 170.986 180.4C183.052 165.283 200.287 155.548 219.5 153.36C225.085 152.724 230.764 152.877 236.38 152.863L261.744 152.824L342.233 152.75Z"/>
	<path transform="scale(0.0488281 0.0488281)" d="M179.765 659.159C187.799 658.638 196.09 659.041 204.148 659.045L250.347 659.075L392.856 659.069L832.721 659.02C835.56 659.022 844.123 658.269 846.024 659.969C851.927 665.246 857.329 671.716 862.81 677.478L898.854 715.519L940.222 759.163C947.443 766.802 955.438 774.367 961.979 782.575C963.978 785.083 965.724 787.737 965.94 791.029C966.146 794.165 964.671 796.901 962.561 799.119C959.871 801.946 955.832 804.02 952.404 805.803C941.44 811.503 928.663 815.977 916.353 817.397C908.167 818.342 899.362 817.73 891.11 817.734L842.25 817.756L330.811 818.075L195.28 818.149L146.109 818.147C125.478 818.141 104.602 819.668 84.6773 813.289C76.0747 810.536 61.0269 803.969 56.8137 795.164C55.6524 792.737 55.4763 789.936 56.4178 787.391C56.9831 785.863 57.9514 784.518 59.0297 783.311L78.0593 763.528L155.229 683.225L169.163 668.75C172.326 665.439 175.648 661.244 179.765 659.159Z"/>
	<path fill="white" transform="scale(0.0488281 0.0488281)" d="M570.256 765.749L582.735 765.754L593.914 802.712L452.75 802.452L428.931 802.381L440.775 766.152C444.273 765.375 448.711 765.826 452.321 765.812L478.762 765.865L570.256 765.749Z"/>
	<path fill="white" transform="scale(0.0488281 0.0488281)" d="M185.139 674.599L839.253 674.515L916.795 756.59L937.506 778.579C941.18 782.438 945.33 786.132 948.472 790.441C939.376 796.432 926.318 800.519 915.594 801.928C909.806 802.689 903.748 802.405 897.918 802.375L872.071 802.232L785.744 801.999L609.987 802.674L595.185 756.147C594.525 754.038 593.882 752.47 591.755 751.471C590.867 751.054 589.965 750.946 589 750.922L517.171 751.019L459.549 750.984L441.922 750.943C438.64 750.936 434.843 750.473 431.75 751.58C428.967 753.952 427.986 758.528 426.81 761.924L419.903 782.604L412.65 802.488L202.146 802.703L138.036 802.634C127.822 802.617 116.626 803.475 106.51 802.257C94.4562 800.805 83.2598 797.422 73.0685 790.676L185.139 674.599Z"/>
	<path transform="scale(0.0488281 0.0488281)" d="M203.29 192.562C213.515 191.959 224.096 192.474 234.361 192.479L294.731 192.494L481.434 192.535L712.286 192.592L783.82 192.551L818.717 192.489C822.129 192.627 825.741 194.239 828.243 196.555C830.971 199.081 832.769 203.04 832.895 206.75L832.95 241.192L832.977 308.34L833.037 511.748L833.009 593.913L832.978 614.087C832.971 617.173 833.395 621.03 832.704 624.006C832.448 625.111 831.583 626.274 830.781 627.046C828.149 629.581 825.117 628.98 821.75 629.037L422.147 629.026L280.406 629.099L234.017 629.175L209.344 629.141C206.52 629.034 203.833 628.844 201.231 627.635C197.069 625.702 193.6 621.878 192.15 617.513C191.1 614.351 191.447 610.721 191.446 607.423L191.442 591.18L191.455 537.851L191.488 317.552L191.481 240.805L191.499 217.23C191.507 213.157 191.221 208.822 191.599 204.773C191.756 203.098 192.337 201.231 193.125 199.75C195.195 195.855 199.318 193.906 203.29 192.562Z"/>
	<path fill="white" transform="scale(0.0488281 0.0488281)" d="M254.86 207.746L816.998 208.023L816.957 613.504L770.25 613.535L207.233 613.518L207.469 207.887L254.86 207.746Z"/>
	<path transform="scale(0.0488281 0.0488281)" d="M793.251 219.736C796.707 219.832 799.666 220.32 802.229 222.85C805.297 225.878 805.328 229.323 805.387 233.348L805.512 315.771L805.507 469.585L805.485 547.278L805.476 571.36C805.474 575.757 805.773 580.388 805.312 584.75C804.918 588.487 802.863 592.35 800.188 594.957C797.281 597.79 792.979 600.17 788.864 600.475C782.384 600.955 775.575 600.573 769.068 600.58L731.74 600.653L611.726 600.788L232.319 601.029C229.119 601.066 222.469 601.93 220.25 599.327C219.3 598.211 219.059 597.138 218.989 595.706C218.307 581.8 219.028 567.558 219.064 553.606L219.132 472.031L219.167 219.931L793.251 219.736Z"/>
	<path fill="white" transform="scale(0.0488281 0.0488281)" d="M234.668 235.496L789.885 235.535L789.79 489.445L789.867 554.988L789.869 573.335C789.859 576.865 790.16 580.581 789.25 584.015C788.283 584.579 787.685 584.864 786.541 584.913L766.933 584.924L727.582 584.935L608.059 584.939L234.503 584.967L234.668 235.496Z"/>
</svg>
